<svg width="68" height="68" viewBox="0 0 68 68" fill="none" xmlns="http://www.w3.org/2000/svg">
<path d="M43.056 31.3642C41.4933 30.4713 36.2474 25.1137 35.3544 23.6627C33.3453 20.2026 29.8852 25.1137 28.9923 26.5647C28.211 28.0157 26.6483 30.1365 25.4206 31.141C24.0812 32.1456 21.6256 33.9314 20.8443 36.4986C20.063 38.9542 16.9377 41.4097 16.0448 42.6375C15.2635 43.8653 13.9241 46.2092 11.8033 47.9951C9.68263 49.781 8.12 51.9017 7.67353 53.6876C7.22706 55.4734 4.7715 56.0315 4.43665 57.8174C3.99018 59.6032 2.42755 62.7285 1.53462 63.733C-0.809328 66.4118 1.19977 68.5326 3.87857 66.077C4.88312 65.1841 8.90131 60.3845 10.6872 59.9381C12.473 59.4916 15.3751 57.1477 17.1609 55.027C18.9468 52.9062 23.4115 50.4507 25.1973 48.5532C27.9877 45.6512 32.1176 45.2047 35.5777 41.4097C38.7029 37.838 49.0833 34.936 43.056 31.3642Z" fill="#E88F27"/>
<path d="M8.67806 57.2593C9.90584 57.5941 7.11543 55.2502 6.44573 56.5896C5.77603 57.929 4.99471 58.5987 4.54825 59.9381C4.10178 61.2775 2.31592 63.0634 1.75783 64.4028C1.19975 65.7421 1.42298 66.6351 2.65077 64.5144C3.87855 62.3937 4.32501 61.6123 5.5528 60.3846C6.78058 59.2684 6.44573 56.5896 8.67806 57.2593ZM10.5755 55.585C11.1336 55.027 9.34776 54.8037 9.90584 53.9108C10.6872 52.7946 12.1382 52.0133 13.7008 48.7764C13.7008 48.7764 15.8215 50.4507 16.3796 49.781C17.0493 48.888 14.3705 47.1022 13.7008 47.3254C12.473 47.6603 12.0266 50.3391 8.78968 53.4643C7.78513 54.5805 9.79422 56.3664 10.5755 55.585ZM29.5504 34.6011C30.2201 33.8198 27.6529 31.5875 26.9832 31.6991C25.7554 31.9223 25.0857 34.6011 21.6256 37.3915C20.3978 38.3961 22.2953 40.5168 23.1882 39.7355C23.7463 39.1774 21.9604 38.7309 22.6301 37.9496C23.4114 36.9451 24.9741 36.2754 26.8716 33.1501C26.8716 33.2617 28.9923 35.1592 29.5504 34.6011ZM21.0675 41.9678C20.8443 42.5259 19.9513 41.2981 19.5049 41.8562C18.8352 42.6375 18.7235 43.8653 16.6028 45.7628C16.6028 45.7628 18.7235 46.9906 18.2771 47.5486C17.8306 48.2183 15.3751 46.6557 15.3751 46.2093C15.2634 45.2047 17.2725 44.3118 18.7235 41.2981C19.2816 40.0703 21.514 41.1865 21.0675 41.9678ZM33.4569 25.0021C32.4524 25.0021 31.7827 27.1228 28.8807 28.9087C27.8761 29.5784 29.3271 31.6991 29.9968 31.2526C30.4433 30.9178 29.1039 30.1365 29.662 29.69C30.3317 29.0203 31.6711 28.6855 33.2337 26.3415C33.2337 26.3415 34.7963 28.4622 35.3544 28.0158C36.0241 27.3461 34.015 25.0021 33.4569 25.0021Z" fill="#FFCE31"/>
<path d="M67.4999 13.394C52.8782 14.3985 60.5797 4.35304 60.5797 4.35304C60.5797 4.35304 54.8873 7.36669 53.4362 6.13891L53.6595 0C53.6595 0 48.9716 3.46011 47.2973 3.3485L41.6049 1.3394C41.6049 1.3394 42.2746 4.57628 41.9397 6.58538L37.6983 6.80861C48.3019 15.6263 38.0331 12.9475 38.0331 12.9475C47.1857 19.3097 40.2655 26.0067 37.6983 28.239C36.6938 29.1319 39.1493 31.2526 39.5958 30.5829C41.9397 27.3461 48.7483 17.747 54.7756 28.7971C54.7756 28.7971 54.3292 20.091 60.8029 26.8996C58.0125 18.5283 66.4954 21.2071 66.4954 21.2071L62.3656 18.1935C62.4772 18.1935 63.3701 15.4031 67.4999 13.394Z" fill="#699635"/>
<path d="M66.4955 21.0955C66.4955 21.0955 66.049 16.9657 62.254 15.6263C60.5798 15.0682 67.3884 13.394 67.3884 13.394C63.8167 11.05 59.2404 12.7243 60.6914 10.492C62.9237 7.14346 60.5798 4.35305 60.5798 4.35305C60.5798 4.35305 54.7757 8.92932 54.999 6.47376C55.3338 2.34395 53.6596 0 53.6596 0C53.6596 0 49.8646 5.02275 48.86 3.79496C46.6277 1.11617 41.605 1.45102 41.605 1.45102C41.605 1.45102 46.2929 6.58538 42.9444 6.47376C40.2656 6.36214 37.6984 6.80861 37.6984 6.80861C37.6984 6.80861 45.6232 12.2778 43.1676 12.0546C40.712 11.7197 38.0332 12.9475 38.0332 12.9475C38.0332 12.9475 44.9535 15.0682 42.8328 22.1001C42.2747 23.8859 40.154 26.788 37.4752 29.0203C37.9216 30.4713 38.9262 30.5829 38.9262 30.5829C38.9262 30.5829 43.056 25.5602 44.6186 24.444C51.9853 18.9748 54.8873 28.7971 54.8873 28.7971C54.8873 28.7971 56.7848 26.5647 57.0081 22.8814C57.1197 19.5329 61.0263 26.8996 61.0263 26.8996C61.0263 26.8996 62.4773 23.6627 61.3611 20.8723C59.7985 17.8586 66.4955 21.0955 66.4955 21.0955Z" fill="#83BF4F"/>
<path d="M52.3201 3.90656C52.3201 11.4965 48.0787 18.1935 48.0787 18.1935C55.6686 11.05 52.3201 3.90656 52.3201 3.90656ZM44.2837 7.70152C46.1812 14.3985 44.2837 21.3187 44.2837 21.3187C48.9716 13.1707 44.2837 7.70152 44.2837 7.70152ZM61.9191 17.9702C51.8736 16.7425 42.7211 24.5556 42.7211 24.5556C53.1014 12.8359 61.9191 17.9702 61.9191 17.9702ZM50.9807 16.5192C50.9807 16.5192 56.6731 13.1707 62.1423 13.5056C62.1423 13.5056 57.3428 10.2687 50.9807 16.5192Z" fill="#699635"/>
</svg>
