<svg width="58" height="58" viewBox="0 0 58 58" fill="none" xmlns="http://www.w3.org/2000/svg">
<path d="M29.2512 33.189C12.9716 33.189 0.5 26.4296 0.5 41.5668C0.5 53.7528 16.5893 57.0849 28.8704 57.0849C43.1508 57.0849 57.6217 53.7528 57.6217 41.5668C57.6217 26.4296 46.0069 33.189 29.2512 33.189Z" fill="#89664C"/>
<path d="M28.7752 17.9565C19.6357 17.9565 5.4505 19.0038 5.4505 29.9521C5.4505 45.9462 52.5759 45.9462 52.5759 29.9521C52.6711 19.0038 38.4859 17.9565 28.7752 17.9565Z" fill="#9B7861"/>
<path d="M45.2453 13.958C40.866 4.15214 20.1118 14.2436 23.7295 2.34329C24.3007 0.534434 24.2055 -0.227188 22.8726 0.0584199C15.4468 1.58166 10.0203 9.19788 11.9243 15.5765C18.0173 35.9499 51.2431 27.2864 45.2453 13.958Z" fill="#A88673"/>
<path d="M26.0143 30.7137C26.0143 34.5218 22.9679 37.5683 19.1597 37.5683C15.3516 37.5683 12.3051 34.5218 12.3051 30.7137C12.3051 26.9056 15.3516 23.8591 19.1597 23.8591C22.9679 23.8591 26.0143 26.9056 26.0143 30.7137Z" fill="white"/>
<path d="M21.0638 34.141C22.9567 34.141 24.4911 32.6066 24.4911 30.7137C24.4911 28.8209 22.9567 27.2864 21.0638 27.2864C19.171 27.2864 17.6365 28.8209 17.6365 30.7137C17.6365 32.6066 19.171 34.141 21.0638 34.141Z" fill="#231F20"/>
<path d="M45.8165 30.7137C45.8165 34.5218 42.77 37.5683 38.9619 37.5683C35.1538 37.5683 32.1073 34.5218 32.1073 30.7137C32.1073 26.9056 35.1538 23.8591 38.9619 23.8591C42.6748 23.8591 45.8165 26.9056 45.8165 30.7137Z" fill="white"/>
<path d="M37.0579 34.141C38.9507 34.141 40.4852 32.6066 40.4852 30.7137C40.4852 28.8209 38.9507 27.2864 37.0579 27.2864C35.165 27.2864 33.6306 28.8209 33.6306 30.7137C33.6306 32.6066 35.165 34.141 37.0579 34.141Z" fill="#231F20"/>
<path d="M34.773 46.2318C34.773 49.3734 32.2025 51.9439 29.0608 51.9439C25.9191 51.9439 23.3486 49.3734 23.3486 46.2318C23.3486 43.0901 25.9191 40.5196 29.0608 40.5196C32.2025 40.5196 34.773 43.0901 34.773 46.2318Z" fill="#231F20"/>
</svg>
