<svg width="55" height="54" viewBox="0 0 55 54" fill="none" xmlns="http://www.w3.org/2000/svg">
<path d="M54.5 27C54.5 41.94 44.78 54 27.5 54C12.56 54 0.5 41.94 0.5 27C0.5 12.06 12.56 0 27.5 0C42.44 0 54.5 12.06 54.5 27Z" fill="#FFDD67"/>
<path d="M22.8199 17.37C22.6399 17.01 22.1899 16.83 21.8299 17.1L20.0299 18.18L20.6599 13.68C20.6599 13.5 20.6599 13.32 20.5699 13.23L20.0299 12.15C19.9399 11.97 19.7599 11.88 19.5799 11.79C19.3999 11.7 19.2199 11.79 19.0399 11.88L14.6299 14.49C14.4499 14.58 14.3599 14.76 14.2699 14.94C14.1799 15.12 14.2699 15.3 14.3599 15.48L14.9899 16.65C15.1699 17.01 15.6199 17.19 15.9799 16.92L17.6899 15.93L17.0599 20.34C17.0599 20.52 17.0599 20.7 17.1499 20.79L17.7799 21.96C17.9599 22.23 18.2299 22.41 18.5899 22.32C18.6799 22.32 18.6799 22.32 18.7699 22.23L23.2699 19.62C23.4499 19.53 23.5399 19.35 23.6299 19.17C23.7199 18.99 23.6299 18.81 23.5399 18.63L22.8199 17.37ZM35.1499 5.49001C35.0599 5.31001 34.8799 5.22001 34.6999 5.13001L27.5899 3.33001C27.2299 3.24001 26.8699 3.51001 26.7799 3.87001L26.4199 5.58001C26.4199 5.76001 26.4199 5.94001 26.5099 6.12001C26.5999 6.30001 26.7799 6.39001 26.9599 6.48001L30.1999 7.29001L25.2499 11.52C25.1599 11.61 25.0699 11.79 24.9799 11.97L24.7999 13.77C24.7999 13.95 24.7999 14.13 24.8899 14.31C24.9799 14.49 25.1599 14.58 25.3399 14.67L32.5399 16.47H32.8099C32.8999 16.47 32.9899 16.38 33.0799 16.38C33.2599 16.29 33.3499 16.11 33.3499 15.93L33.7099 14.22C33.7999 13.86 33.5299 13.41 33.1699 13.32L29.7499 12.42L34.6999 8.10001C34.7899 8.01001 34.8799 7.83001 34.9699 7.65001L35.3299 6.03001C35.3299 5.85001 35.2399 5.67001 35.1499 5.49001ZM48.1999 18.36C48.3799 18.27 48.4699 18.18 48.5599 18L49.6399 15.75C49.8199 15.39 49.6399 15.03 49.2799 14.85L44.0599 12.33L53.1499 7.83001C53.3299 7.74001 53.4199 7.65001 53.4199 7.47001L54.4099 5.40001C54.5899 5.04001 54.4099 4.68001 54.0499 4.50001L44.5999 0.0900088C44.2399 -0.0899912 43.8799 0.0900089 43.6999 0.450009L42.6199 2.70001C42.4399 3.06001 42.6199 3.42001 42.9799 3.60001L47.9299 5.94001L38.9299 10.35C38.7499 10.44 38.6599 10.53 38.6599 10.71L37.5799 12.96C37.4899 13.14 37.4899 13.32 37.5799 13.5C37.5799 13.59 37.6699 13.68 37.7599 13.77C37.8499 13.86 37.8499 13.86 37.9399 13.86L47.6599 18.45C47.8399 18.45 48.0199 18.45 48.1999 18.36Z" fill="#467591"/>
<path d="M43.7 38.88C44.42 39.96 44.69 42.12 43.16 43.11C41.9 43.92 39.83 43.74 38.3 44.73C36.68 45.81 36.05 47.7 34.79 48.51C33.08 49.59 31.46 48.33 30.74 47.25C29.48 45.27 31.37 41.76 34.97 39.51C38.48 37.17 42.44 36.9 43.7 38.88ZM33.17 28.44C39.65 33.3 46.58 30.06 46.94 22.05C46.94 21.6 46.4 21.69 45.68 21.6C43.52 25.92 37.85 28.26 33.53 27.27C33.26 27.9 32.9 28.26 33.17 28.44ZM13.01 37.89C19.49 42.75 26.42 39.51 26.78 31.5C26.78 31.05 26.24 31.14 25.52 31.05C23.36 35.37 17.69 37.71 13.37 36.72C13.1 37.26 12.65 37.62 13.01 37.89Z" fill="#664E27"/>
</svg>
